<svg width="128" height="96" viewBox="0 0 128 96" fill="none" xmlns="http://www.w3.org/2000/svg">
  <path
    d="M 12 5 C 6 5 5 10 5 18 C 5 30 5 38 5 42 C 5 46 3 47 1 48 C 3 49 5 50 5 54 C 5 58 5 66 5 78 C 5 86 6 91 12 91"
    stroke="white"
    stroke-width="5"
    stroke-linecap="round"
    stroke-linejoin="round"
    fill="none"
    transform="translate(2, 0)"
  />
  <path
    d="M 4 5 C 10 5 11 10 11 18 C 11 30 11 38 11 42 C 11 46 13 47 15 48 C 13 49 11 50 11 54 C 11 58 11 66 11 78 C 11 86 10 91 4 91"
    stroke="white"
    stroke-width="5"
    stroke-linecap="round"
    stroke-linejoin="round"
    fill="none"
    transform="translate(107, 0)"
  />
  <g transform="translate(17, 0)">
    <path
      d="M81.2851 66.3189V17.0927H81.2243C80.4799 10.8738 71.9993 6.81235 61.4713 5.05555C60.4691 4.88787 59.4515 4.74195 58.4172 4.61459H58.4153C58.0127 3.83315 57.4905 3.12403 56.8697 2.51475C56.5087 2.15891 56.1177 1.83827 55.6959 1.55539C54.3884 0.674109 52.8159 0.162109 51.1219 0.162109C48.1081 0.162109 45.4764 1.78707 44.0511 4.20819C44.0505 4.20819 44.0499 4.20819 44.0492 4.20819C43.0207 4.27219 41.9999 4.35411 40.99 4.45779C28.4851 5.72819 17.607 10.0124 16.7615 17.0927H16.711V17.7064C16.7084 17.7992 16.7059 17.8952 16.7059 17.9906C16.7059 18.086 16.7084 18.182 16.711 18.2748V34.2594C11.3734 35.5624 7.41113 40.3733 7.41113 46.1122C7.41113 51.8511 11.3734 56.662 16.711 57.965V71.4466C16.711 76.8815 22.5286 80.0738 27.4111 81.7935C33.2262 83.8453 40.8915 84.9723 48.9894 84.9723C50.6348 84.9723 52.2559 84.9269 53.8188 84.8367C54.0979 84.8207 54.3743 84.8021 54.6483 84.7836C55.2729 84.7413 55.9027 84.6933 56.5356 84.6344C56.5356 84.6344 56.5356 84.6344 56.5363 84.6344C58.6527 91.1388 64.7615 95.8415 71.9718 95.8415C80.9363 95.8415 88.2035 88.5743 88.2035 79.6098C88.2035 74.1116 85.4668 69.2552 81.2844 66.3189H81.2851ZM68.334 13.6059C71.6454 14.8207 73.4579 16.1468 74.2105 17.0927C74.503 17.4594 74.6355 17.7679 74.6355 17.9912C74.6355 18.7912 72.9241 20.6914 68.334 22.374C66.9094 22.8949 65.3523 23.3519 63.6857 23.7372C59.3587 24.742 54.3039 25.2789 48.9939 25.2789C46.9126 25.2789 44.8691 25.1964 42.894 25.0344L38.1657 31.1765C41.6556 31.6738 45.3286 31.9234 48.9932 31.9234C58.6758 31.9234 68.4268 30.18 74.6406 26.7887V63.6002C73.7721 63.4562 72.8812 63.3781 71.9718 63.3781C68.9561 63.3781 66.135 64.2031 63.7151 65.636L63.7126 65.6348L31.5571 48.6267C31.7267 47.8152 31.8175 46.9749 31.8175 46.1128C31.8175 43.2412 30.823 40.6031 29.1628 38.5186L29.1641 38.5167L46.9395 15.4178C48.1638 16.1448 49.5948 16.564 51.1219 16.564C54.5971 16.564 57.5667 14.3995 58.7603 11.3461C58.7609 11.3461 58.7615 11.3461 58.7622 11.3461C59.671 11.4709 60.5644 11.6117 61.4303 11.7743C63.9551 12.2421 66.2835 12.8559 68.3327 13.6053L68.334 13.6059ZM23.7759 17.0927C24.5279 16.1468 26.3404 14.82 29.655 13.6059C32.7622 12.4687 36.5145 11.6418 40.6342 11.1688C41.5142 11.0651 42.4121 10.98 43.3267 10.9135C43.3267 10.9135 43.3267 10.9135 43.3273 10.9135C43.6326 11.846 44.0998 12.7055 44.6975 13.4568L24.7513 35.0408L24.7494 35.0427C24.2995 34.8335 23.8329 34.6543 23.3555 34.5V26.7957C24.5113 27.4255 25.7875 27.997 27.1641 28.5128L32.1049 23.1682C31.2518 22.9237 30.4332 22.6581 29.6543 22.3733C25.0617 20.6907 23.3503 18.7906 23.3503 17.9906C23.3503 17.7672 23.4835 17.4588 23.7753 17.092L23.7759 17.0927ZM54.1996 78.1551C53.8489 78.1788 53.4924 78.2005 53.134 78.2191C51.7894 78.2908 50.3993 78.3279 48.9907 78.3279C31.3459 78.3279 23.3561 73.0498 23.3561 71.4466V57.7275C24.7763 57.2693 26.0831 56.5602 27.2236 55.6495L27.2262 55.6514L56.1055 76.1781L56.1075 76.1794C55.9775 76.7842 55.8835 77.4024 55.8214 78.0303C55.8207 78.0303 55.8195 78.0303 55.8188 78.0303C55.2927 78.0757 54.7532 78.118 54.2003 78.1551H54.1996Z"
      fill="white"
    />
  </g>
</svg>
